<svg xmlns="http://www.w3.org/2000/svg" width="900" height="540" viewBox="0 0 900 540" role="img">
<defs><radialGradient id="glow"><stop stop-color="#b9a881" stop-opacity=".17"/><stop offset="1" stop-color="#101b1d" stop-opacity="0"/></radialGradient><pattern id="grid" width="36" height="36" patternUnits="userSpaceOnUse"><path d="M36 0H0V36" fill="none" stroke="#85a092" stroke-opacity=".075"/></pattern><marker id="arrow" markerWidth="7" markerHeight="7" refX="5" refY="3" orient="auto"><path d="M0 0L6 3L0 6" fill="none" stroke="#d99b79" stroke-width="1"/></marker></defs>
<rect width="900" height="540" fill="#142021"/><rect width="900" height="540" fill="url(#grid)"/><ellipse cx="495" cy="230" rx="440" ry="330" fill="url(#glow)"/><text x="100" y="134" fill="#cbd3bd" font-size="13" font-family="monospace" text-anchor="start">QUEUE DELAY</text><rect x="100" y="152" width="350" height="17" rx="2" fill="#263a33" stroke="none" opacity="1"/><rect x="100" y="152" width="315.0" height="17" rx="2" fill="#d0a17b" stroke="none" opacity="1"/><text x="480" y="167" fill="#d8e2d7" font-size="16" font-family="monospace" text-anchor="start">45%</text><text x="100" y="227" fill="#cbd3bd" font-size="13" font-family="monospace" text-anchor="start">SPILL EVENTS</text><rect x="100" y="245" width="350" height="17" rx="2" fill="#263a33" stroke="none" opacity="1"/><rect x="100" y="245" width="244.99999999999997" height="17" rx="2" fill="#9fb891" stroke="none" opacity="1"/><text x="480" y="260" fill="#d8e2d7" font-size="16" font-family="monospace" text-anchor="start">35%</text><text x="100" y="320" fill="#cbd3bd" font-size="13" font-family="monospace" text-anchor="start">CONCURRENCY</text><rect x="100" y="338" width="350" height="17" rx="2" fill="#263a33" stroke="none" opacity="1"/><rect x="100" y="338" width="140.0" height="17" rx="2" fill="#84aca8" stroke="none" opacity="1"/><text x="480" y="353" fill="#d8e2d7" font-size="16" font-family="monospace" text-anchor="start">20%</text><circle cx="704" cy="251" r="101" fill="#263c36" stroke="#546f63" stroke-width="17"/><path d="M704 150A101 101 0 1 1 611 290" stroke="#d6af83" stroke-width="17" fill="none" /><text x="704" y="246" fill="#d8e2d7" font-size="15" font-family="monospace" text-anchor="middle">PRESSURE</text><text x="704" y="274" fill="#d8e2d7" font-size="15" font-family="monospace" text-anchor="middle">SCORE</text><text x="450" y="444" fill="#d5b899" font-size="13" font-family="monospace" text-anchor="middle">EXPLICIT WEIGHTS. ADJUSTABLE THRESHOLDS.</text>
<text x="52" y="507" fill="#a6bbaa" font-size="11" font-family="monospace" text-anchor="start">OFFLINE CSV / TRANSPARENT CAPACITY HEURISTIC</text>
</svg>