<svg xmlns="http://www.w3.org/2000/svg" width="900" height="540" viewBox="0 0 900 540" role="img">
<defs><radialGradient id="glow"><stop stop-color="#b68874" stop-opacity=".17"/><stop offset="1" stop-color="#101b1d" stop-opacity="0"/></radialGradient><pattern id="grid" width="36" height="36" patternUnits="userSpaceOnUse"><path d="M36 0H0V36" fill="none" stroke="#85a092" stroke-opacity=".075"/></pattern><marker id="arrow" markerWidth="7" markerHeight="7" refX="5" refY="3" orient="auto"><path d="M0 0L6 3L0 6" fill="none" stroke="#d99b79" stroke-width="1"/></marker></defs>
<rect width="900" height="540" fill="#142021"/><rect width="900" height="540" fill="url(#grid)"/><ellipse cx="495" cy="230" rx="440" ry="330" fill="url(#glow)"/><rect x="145" y="122" width="155" height="248" rx="3" fill="#1c2b2d" stroke="#72948a" opacity="1"/><ellipse cx="222" cy="221" rx="48" ry="70" fill="#293d3d" stroke="#a6beb1"/><path d="M181 212Q197 201 209 211M235 211Q249 201 266 212M221 218l-7 33 18 0M199 268q23 14 45 0" stroke="#d0d3bf" stroke-width="2" fill="none" /><path d="M165 342Q185 284 221 300Q257 286 282 342" stroke="#6b8c84" stroke-width="2" fill="none" /><path d="M159 149h127" stroke="#81a38c" stroke-width="0.5" fill="none" opacity=".35"/><path d="M159 177h127" stroke="#81a38c" stroke-width="0.5" fill="none" opacity=".35"/><path d="M159 205h127" stroke="#81a38c" stroke-width="0.5" fill="none" opacity=".35"/><path d="M159 233h127" stroke="#81a38c" stroke-width="0.5" fill="none" opacity=".35"/><path d="M159 261h127" stroke="#81a38c" stroke-width="0.5" fill="none" opacity=".35"/><path d="M159 289h127" stroke="#81a38c" stroke-width="0.5" fill="none" opacity=".35"/><path d="M159 317h127" stroke="#81a38c" stroke-width="0.5" fill="none" opacity=".35"/><text x="222" y="413" fill="#d8e2d7" font-size="14" font-family="monospace" text-anchor="middle">CLEAN</text><path d="M317 243L354 243" stroke="#d99b79" stroke-width="2" fill="none" marker-end="url(#arrow)"/><rect x="375" y="122" width="155" height="248" rx="3" fill="#1c2b2d" stroke="#72948a" opacity="1"/><ellipse cx="452" cy="221" rx="48" ry="70" fill="#293d3d" stroke="#a6beb1"/><path d="M411 212Q427 201 439 211M465 211Q479 201 496 212M451 218l-7 33 18 0M429 268q23 14 45 0" stroke="#d0d3bf" stroke-width="2" fill="none" /><path d="M395 342Q415 284 451 300Q487 286 512 342" stroke="#6b8c84" stroke-width="2" fill="none" /><path d="M389 149h127" stroke="#81a38c" stroke-width="0.5" fill="none" opacity=".35"/><path d="M389 177h127" stroke="#81a38c" stroke-width="0.5" fill="none" opacity=".35"/><path d="M389 205h127" stroke="#81a38c" stroke-width="0.5" fill="none" opacity=".35"/><path d="M389 233h127" stroke="#81a38c" stroke-width="0.5" fill="none" opacity=".35"/><path d="M389 261h127" stroke="#81a38c" stroke-width="0.5" fill="none" opacity=".35"/><path d="M389 289h127" stroke="#81a38c" stroke-width="0.5" fill="none" opacity=".35"/><path d="M389 317h127" stroke="#81a38c" stroke-width="0.5" fill="none" opacity=".35"/><rect x="388" y="148" width="12" height="12" rx="0" fill="#c9857280" stroke="none" opacity="1"/><rect x="425" y="171" width="12" height="12" rx="0" fill="#c9857280" stroke="none" opacity="1"/><rect x="462" y="194" width="12" height="12" rx="0" fill="#c9857280" stroke="none" opacity="1"/><rect x="499" y="217" width="12" height="12" rx="0" fill="#c9857280" stroke="none" opacity="1"/><rect x="406" y="240" width="12" height="12" rx="0" fill="#c9857280" stroke="none" opacity="1"/><rect x="443" y="263" width="12" height="12" rx="0" fill="#c9857280" stroke="none" opacity="1"/><rect x="480" y="286" width="12" height="12" rx="0" fill="#c9857280" stroke="none" opacity="1"/><rect x="517" y="166" width="12" height="12" rx="0" fill="#c9857280" stroke="none" opacity="1"/><rect x="424" y="189" width="12" height="12" rx="0" fill="#c9857280" stroke="none" opacity="1"/><rect x="461" y="212" width="12" height="12" rx="0" fill="#c9857280" stroke="none" opacity="1"/><rect x="498" y="235" width="12" height="12" rx="0" fill="#c9857280" stroke="none" opacity="1"/><rect x="405" y="258" width="12" height="12" rx="0" fill="#c9857280" stroke="none" opacity="1"/><rect x="442" y="281" width="12" height="12" rx="0" fill="#c9857280" stroke="none" opacity="1"/><rect x="479" y="161" width="12" height="12" rx="0" fill="#c9857280" stroke="none" opacity="1"/><rect x="516" y="184" width="12" height="12" rx="0" fill="#c9857280" stroke="none" opacity="1"/><rect x="423" y="207" width="12" height="12" rx="0" fill="#c9857280" stroke="none" opacity="1"/><rect x="460" y="230" width="12" height="12" rx="0" fill="#c9857280" stroke="none" opacity="1"/><rect x="497" y="253" width="12" height="12" rx="0" fill="#c9857280" stroke="none" opacity="1"/><rect x="404" y="276" width="12" height="12" rx="0" fill="#c9857280" stroke="none" opacity="1"/><rect x="441" y="156" width="12" height="12" rx="0" fill="#c9857280" stroke="none" opacity="1"/><rect x="478" y="179" width="12" height="12" rx="0" fill="#c9857280" stroke="none" opacity="1"/><rect x="515" y="202" width="12" height="12" rx="0" fill="#c9857280" stroke="none" opacity="1"/><rect x="422" y="225" width="12" height="12" rx="0" fill="#c9857280" stroke="none" opacity="1"/><rect x="459" y="248" width="12" height="12" rx="0" fill="#c9857280" stroke="none" opacity="1"/><rect x="496" y="271" width="12" height="12" rx="0" fill="#c9857280" stroke="none" opacity="1"/><rect x="403" y="151" width="12" height="12" rx="0" fill="#c9857280" stroke="none" opacity="1"/><rect x="440" y="174" width="12" height="12" rx="0" fill="#c9857280" stroke="none" opacity="1"/><rect x="477" y="197" width="12" height="12" rx="0" fill="#c9857280" stroke="none" opacity="1"/><rect x="514" y="220" width="12" height="12" rx="0" fill="#c9857280" stroke="none" opacity="1"/><rect x="421" y="243" width="12" height="12" rx="0" fill="#c9857280" stroke="none" opacity="1"/><rect x="458" y="266" width="12" height="12" rx="0" fill="#c9857280" stroke="none" opacity="1"/><rect x="495" y="289" width="12" height="12" rx="0" fill="#c9857280" stroke="none" opacity="1"/><rect x="402" y="169" width="12" height="12" rx="0" fill="#c9857280" stroke="none" opacity="1"/><rect x="439" y="192" width="12" height="12" rx="0" fill="#c9857280" stroke="none" opacity="1"/><rect x="476" y="215" width="12" height="12" rx="0" fill="#c9857280" stroke="none" opacity="1"/><rect x="513" y="238" width="12" height="12" rx="0" fill="#c9857280" stroke="none" opacity="1"/><rect x="420" y="261" width="12" height="12" rx="0" fill="#c9857280" stroke="none" opacity="1"/><rect x="457" y="284" width="12" height="12" rx="0" fill="#c9857280" stroke="none" opacity="1"/><rect x="494" y="164" width="12" height="12" rx="0" fill="#c9857280" stroke="none" opacity="1"/><rect x="401" y="187" width="12" height="12" rx="0" fill="#c9857280" stroke="none" opacity="1"/><text x="452" y="413" fill="#d8e2d7" font-size="14" font-family="monospace" text-anchor="middle">COMPRESS</text><path d="M547 243L584 243" stroke="#d99b79" stroke-width="2" fill="none" marker-end="url(#arrow)"/><rect x="605" y="122" width="155" height="248" rx="3" fill="#1c2b2d" stroke="#72948a" opacity="1"/><ellipse cx="682" cy="221" rx="48" ry="70" fill="#293d3d" stroke="#a6beb1"/><path d="M641 212Q657 201 669 211M695 211Q709 201 726 212M681 218l-7 33 18 0M659 268q23 14 45 0" stroke="#d0d3bf" stroke-width="2" fill="none" /><path d="M625 342Q645 284 681 300Q717 286 742 342" stroke="#6b8c84" stroke-width="2" fill="none" /><path d="M619 149h127" stroke="#81a38c" stroke-width="0.5" fill="none" opacity=".35"/><path d="M619 177h127" stroke="#81a38c" stroke-width="0.5" fill="none" opacity=".35"/><path d="M619 205h127" stroke="#81a38c" stroke-width="0.5" fill="none" opacity=".35"/><path d="M619 233h127" stroke="#81a38c" stroke-width="0.5" fill="none" opacity=".35"/><path d="M619 261h127" stroke="#81a38c" stroke-width="0.5" fill="none" opacity=".35"/><path d="M619 289h127" stroke="#81a38c" stroke-width="0.5" fill="none" opacity=".35"/><path d="M619 317h127" stroke="#81a38c" stroke-width="0.5" fill="none" opacity=".35"/><path d="M612 184h141" stroke="#c3d0b6" stroke-width="4" fill="none" opacity=".25"/><path d="M612 199h141" stroke="#c3d0b6" stroke-width="4" fill="none" opacity=".25"/><path d="M612 214h141" stroke="#c3d0b6" stroke-width="4" fill="none" opacity=".25"/><path d="M612 229h141" stroke="#c3d0b6" stroke-width="4" fill="none" opacity=".25"/><path d="M612 244h141" stroke="#c3d0b6" stroke-width="4" fill="none" opacity=".25"/><path d="M612 259h141" stroke="#c3d0b6" stroke-width="4" fill="none" opacity=".25"/><path d="M612 274h141" stroke="#c3d0b6" stroke-width="4" fill="none" opacity=".25"/><path d="M612 289h141" stroke="#c3d0b6" stroke-width="4" fill="none" opacity=".25"/><text x="682" y="413" fill="#d8e2d7" font-size="14" font-family="monospace" text-anchor="middle">BLUR</text><text x="450" y="77" fill="#ddae91" font-size="16" font-family="monospace" text-anchor="middle">WHAT SURVIVES THE TRANSFORM?</text>
<text x="52" y="507" fill="#a6bbaa" font-size="11" font-family="monospace" text-anchor="start">FACE CROPS / DEGRADATION TESTS</text>
</svg>