<svg xmlns="http://www.w3.org/2000/svg" width="900" height="540" viewBox="0 0 900 540" role="img">
<defs><radialGradient id="glow"><stop stop-color="#73966d" stop-opacity=".17"/><stop offset="1" stop-color="#101b1d" stop-opacity="0"/></radialGradient><pattern id="grid" width="36" height="36" patternUnits="userSpaceOnUse"><path d="M36 0H0V36" fill="none" stroke="#85a092" stroke-opacity=".075"/></pattern><marker id="arrow" markerWidth="7" markerHeight="7" refX="5" refY="3" orient="auto"><path d="M0 0L6 3L0 6" fill="none" stroke="#d99b79" stroke-width="1"/></marker></defs>
<rect width="900" height="540" fill="#142021"/><rect width="900" height="540" fill="url(#grid)"/><ellipse cx="495" cy="230" rx="440" ry="330" fill="url(#glow)"/><rect x="128" y="78" width="27" height="27" rx="0" fill="#446d58" stroke="none" opacity="1"/><rect x="157" y="78" width="27" height="27" rx="0" fill="#4c7154" stroke="none" opacity="1"/><rect x="186" y="78" width="27" height="27" rx="0" fill="#a4967f" stroke="none" opacity="1"/><rect x="215" y="78" width="27" height="27" rx="0" fill="#8e9973" stroke="none" opacity="1"/><rect x="244" y="78" width="27" height="27" rx="0" fill="#789d7c" stroke="none" opacity="1"/><rect x="273" y="78" width="27" height="27" rx="0" fill="#446d58" stroke="none" opacity="1"/><rect x="302" y="78" width="27" height="27" rx="0" fill="#8e9973" stroke="none" opacity="1"/><rect x="331" y="78" width="27" height="27" rx="0" fill="#6799a8" stroke="none" opacity="1"/><rect x="360" y="78" width="27" height="27" rx="0" fill="#6799a8" stroke="none" opacity="1"/><rect x="389" y="78" width="27" height="27" rx="0" fill="#6799a8" stroke="none" opacity="1"/><rect x="418" y="78" width="27" height="27" rx="0" fill="#a4967f" stroke="none" opacity="1"/><rect x="447" y="78" width="27" height="27" rx="0" fill="#446d58" stroke="none" opacity="1"/><rect x="476" y="78" width="27" height="27" rx="0" fill="#4c7154" stroke="none" opacity="1"/><rect x="505" y="78" width="27" height="27" rx="0" fill="#a4967f" stroke="none" opacity="1"/><rect x="534" y="78" width="27" height="27" rx="0" fill="#8e9973" stroke="none" opacity="1"/><rect x="563" y="78" width="27" height="27" rx="0" fill="#789d7c" stroke="none" opacity="1"/><rect x="592" y="78" width="27" height="27" rx="0" fill="#446d58" stroke="none" opacity="1"/><rect x="621" y="78" width="27" height="27" rx="0" fill="#8e9973" stroke="none" opacity="1"/><rect x="650" y="78" width="27" height="27" rx="0" fill="#789d7c" stroke="none" opacity="1"/><rect x="679" y="78" width="27" height="27" rx="0" fill="#446d58" stroke="none" opacity="1"/><rect x="708" y="78" width="27" height="27" rx="0" fill="#4c7154" stroke="none" opacity="1"/><rect x="737" y="78" width="27" height="27" rx="0" fill="#a4967f" stroke="none" opacity="1"/><rect x="128" y="107" width="27" height="27" rx="0" fill="#8e9973" stroke="none" opacity="1"/><rect x="157" y="107" width="27" height="27" rx="0" fill="#789d7c" stroke="none" opacity="1"/><rect x="186" y="107" width="27" height="27" rx="0" fill="#446d58" stroke="none" opacity="1"/><rect x="215" y="107" width="27" height="27" rx="0" fill="#8e9973" stroke="none" opacity="1"/><rect x="244" y="107" width="27" height="27" rx="0" fill="#789d7c" stroke="none" opacity="1"/><rect x="273" y="107" width="27" height="27" rx="0" fill="#446d58" stroke="none" opacity="1"/><rect x="302" y="107" width="27" height="27" rx="0" fill="#4c7154" stroke="none" opacity="1"/><rect x="331" y="107" width="27" height="27" rx="0" fill="#a4967f" stroke="none" opacity="1"/><rect x="360" y="107" width="27" height="27" rx="0" fill="#446d58" stroke="none" opacity="1"/><rect x="389" y="107" width="27" height="27" rx="0" fill="#6799a8" stroke="none" opacity="1"/><rect x="418" y="107" width="27" height="27" rx="0" fill="#6799a8" stroke="none" opacity="1"/><rect x="447" y="107" width="27" height="27" rx="0" fill="#8e9973" stroke="none" opacity="1"/><rect x="476" y="107" width="27" height="27" rx="0" fill="#789d7c" stroke="none" opacity="1"/><rect x="505" y="107" width="27" height="27" rx="0" fill="#446d58" stroke="none" opacity="1"/><rect x="534" y="107" width="27" height="27" rx="0" fill="#8e9973" stroke="none" opacity="1"/><rect x="563" y="107" width="27" height="27" rx="0" fill="#789d7c" stroke="none" opacity="1"/><rect x="592" y="107" width="27" height="27" rx="0" fill="#446d58" stroke="none" opacity="1"/><rect x="621" y="107" width="27" height="27" rx="0" fill="#4c7154" stroke="none" opacity="1"/><rect x="650" y="107" width="27" height="27" rx="0" fill="#a4967f" stroke="none" opacity="1"/><rect x="679" y="107" width="27" height="27" rx="0" fill="#446d58" stroke="none" opacity="1"/><rect x="708" y="107" width="27" height="27" rx="0" fill="#4c7154" stroke="none" opacity="1"/><rect x="737" y="107" width="27" height="27" rx="0" fill="#a4967f" stroke="none" opacity="1"/><rect x="128" y="136" width="27" height="27" rx="0" fill="#8e9973" stroke="none" opacity="1"/><rect x="157" y="136" width="27" height="27" rx="0" fill="#789d7c" stroke="none" opacity="1"/><rect x="186" y="136" width="27" height="27" rx="0" fill="#446d58" stroke="none" opacity="1"/><rect x="215" y="136" width="27" height="27" rx="0" fill="#4c7154" stroke="none" opacity="1"/><rect x="244" y="136" width="27" height="27" rx="0" fill="#a4967f" stroke="none" opacity="1"/><rect x="273" y="136" width="27" height="27" rx="0" fill="#446d58" stroke="none" opacity="1"/><rect x="302" y="136" width="27" height="27" rx="0" fill="#4c7154" stroke="none" opacity="1"/><rect x="331" y="136" width="27" height="27" rx="0" fill="#a4967f" stroke="none" opacity="1"/><rect x="360" y="136" width="27" height="27" rx="0" fill="#8e9973" stroke="none" opacity="1"/><rect x="389" y="136" width="27" height="27" rx="0" fill="#6799a8" stroke="none" opacity="1"/><rect x="418" y="136" width="27" height="27" rx="0" fill="#6799a8" stroke="none" opacity="1"/><rect x="447" y="136" width="27" height="27" rx="0" fill="#6799a8" stroke="none" opacity="1"/><rect x="476" y="136" width="27" height="27" rx="0" fill="#789d7c" stroke="none" opacity="1"/><rect x="505" y="136" width="27" height="27" rx="0" fill="#446d58" stroke="none" opacity="1"/><rect x="534" y="136" width="27" height="27" rx="0" fill="#4c7154" stroke="none" opacity="1"/><rect x="563" y="136" width="27" height="27" rx="0" fill="#a4967f" stroke="none" opacity="1"/><rect x="592" y="136" width="27" height="27" rx="0" fill="#446d58" stroke="none" opacity="1"/><rect x="621" y="136" width="27" height="27" rx="0" fill="#4c7154" stroke="none" opacity="1"/><rect x="650" y="136" width="27" height="27" rx="0" fill="#a4967f" stroke="none" opacity="1"/><rect x="679" y="136" width="27" height="27" rx="0" fill="#8e9973" stroke="none" opacity="1"/><rect x="708" y="136" width="27" height="27" rx="0" fill="#789d7c" stroke="none" opacity="1"/><rect x="737" y="136" width="27" height="27" rx="0" fill="#446d58" stroke="none" opacity="1"/><rect x="128" y="165" width="27" height="27" rx="0" fill="#4c7154" stroke="none" opacity="1"/><rect x="157" y="165" width="27" height="27" rx="0" fill="#a4967f" stroke="none" opacity="1"/><rect x="186" y="165" width="27" height="27" rx="0" fill="#446d58" stroke="none" opacity="1"/><rect x="215" y="165" width="27" height="27" rx="0" fill="#4c7154" stroke="none" opacity="1"/><rect x="244" y="165" width="27" height="27" rx="0" fill="#a4967f" stroke="none" opacity="1"/><rect x="273" y="165" width="27" height="27" rx="0" fill="#8e9973" stroke="none" opacity="1"/><rect x="302" y="165" width="27" height="27" rx="0" fill="#789d7c" stroke="none" opacity="1"/><rect x="331" y="165" width="27" height="27" rx="0" fill="#446d58" stroke="none" opacity="1"/><rect x="360" y="165" width="27" height="27" rx="0" fill="#8e9973" stroke="none" opacity="1"/><rect x="389" y="165" width="27" height="27" rx="0" fill="#6799a8" stroke="none" opacity="1"/><rect x="418" y="165" width="27" height="27" rx="0" fill="#6799a8" stroke="none" opacity="1"/><rect x="447" y="165" width="27" height="27" rx="0" fill="#4c7154" stroke="none" opacity="1"/><rect x="476" y="165" width="27" height="27" rx="0" fill="#baa787" stroke="none" opacity="1"/><rect x="505" y="165" width="27" height="27" rx="0" fill="#baa787" stroke="none" opacity="1"/><rect x="534" y="165" width="27" height="27" rx="0" fill="#4c7154" stroke="none" opacity="1"/><rect x="563" y="165" width="27" height="27" rx="0" fill="#a4967f" stroke="none" opacity="1"/><rect x="592" y="165" width="27" height="27" rx="0" fill="#baa787" stroke="none" opacity="1"/><rect x="621" y="165" width="27" height="27" rx="0" fill="#789d7c" stroke="none" opacity="1"/><rect x="650" y="165" width="27" height="27" rx="0" fill="#446d58" stroke="none" opacity="1"/><rect x="679" y="165" width="27" height="27" rx="0" fill="#8e9973" stroke="none" opacity="1"/><rect x="708" y="165" width="27" height="27" rx="0" fill="#baa787" stroke="none" opacity="1"/><rect x="737" y="165" width="27" height="27" rx="0" fill="#446d58" stroke="none" opacity="1"/><rect x="128" y="194" width="27" height="27" rx="0" fill="#4c7154" stroke="none" opacity="1"/><rect x="157" y="194" width="27" height="27" rx="0" fill="#a4967f" stroke="none" opacity="1"/><rect x="186" y="194" width="27" height="27" rx="0" fill="#8e9973" stroke="none" opacity="1"/><rect x="215" y="194" width="27" height="27" rx="0" fill="#789d7c" stroke="none" opacity="1"/><rect x="244" y="194" width="27" height="27" rx="0" fill="#446d58" stroke="none" opacity="1"/><rect x="273" y="194" width="27" height="27" rx="0" fill="#8e9973" stroke="none" opacity="1"/><rect x="302" y="194" width="27" height="27" rx="0" fill="#789d7c" stroke="none" opacity="1"/><rect x="331" y="194" width="27" height="27" rx="0" fill="#446d58" stroke="none" opacity="1"/><rect x="360" y="194" width="27" height="27" rx="0" fill="#6799a8" stroke="none" opacity="1"/><rect x="389" y="194" width="27" height="27" rx="0" fill="#6799a8" stroke="none" opacity="1"/><rect x="418" y="194" width="27" height="27" rx="0" fill="#446d58" stroke="none" opacity="1"/><rect x="447" y="194" width="27" height="27" rx="0" fill="#4c7154" stroke="none" opacity="1"/><rect x="476" y="194" width="27" height="27" rx="0" fill="#a4967f" stroke="none" opacity="1"/><rect x="505" y="194" width="27" height="27" rx="0" fill="#baa787" stroke="none" opacity="1"/><rect x="534" y="194" width="27" height="27" rx="0" fill="#789d7c" stroke="none" opacity="1"/><rect x="563" y="194" width="27" height="27" rx="0" fill="#446d58" stroke="none" opacity="1"/><rect x="592" y="194" width="27" height="27" rx="0" fill="#8e9973" stroke="none" opacity="1"/><rect x="621" y="194" width="27" height="27" rx="0" fill="#baa787" stroke="none" opacity="1"/><rect x="650" y="194" width="27" height="27" rx="0" fill="#446d58" stroke="none" opacity="1"/><rect x="679" y="194" width="27" height="27" rx="0" fill="#4c7154" stroke="none" opacity="1"/><rect x="708" y="194" width="27" height="27" rx="0" fill="#baa787" stroke="none" opacity="1"/><rect x="737" y="194" width="27" height="27" rx="0" fill="#baa787" stroke="none" opacity="1"/><rect x="128" y="223" width="27" height="27" rx="0" fill="#789d7c" stroke="none" opacity="1"/><rect x="157" y="223" width="27" height="27" rx="0" fill="#446d58" stroke="none" opacity="1"/><rect x="186" y="223" width="27" height="27" rx="0" fill="#8e9973" stroke="none" opacity="1"/><rect x="215" y="223" width="27" height="27" rx="0" fill="#789d7c" stroke="none" opacity="1"/><rect x="244" y="223" width="27" height="27" rx="0" fill="#446d58" stroke="none" opacity="1"/><rect x="273" y="223" width="27" height="27" rx="0" fill="#4c7154" stroke="none" opacity="1"/><rect x="302" y="223" width="27" height="27" rx="0" fill="#a4967f" stroke="none" opacity="1"/><rect x="331" y="223" width="27" height="27" rx="0" fill="#6799a8" stroke="none" opacity="1"/><rect x="360" y="223" width="27" height="27" rx="0" fill="#6799a8" stroke="none" opacity="1"/><rect x="389" y="223" width="27" height="27" rx="0" fill="#a4967f" stroke="none" opacity="1"/><rect x="418" y="223" width="27" height="27" rx="0" fill="#baa787" stroke="none" opacity="1"/><rect x="447" y="223" width="27" height="27" rx="0" fill="#789d7c" stroke="none" opacity="1"/><rect x="476" y="223" width="27" height="27" rx="0" fill="#446d58" stroke="none" opacity="1"/><rect x="505" y="223" width="27" height="27" rx="0" fill="#8e9973" stroke="none" opacity="1"/><rect x="534" y="223" width="27" height="27" rx="0" fill="#baa787" stroke="none" opacity="1"/><rect x="563" y="223" width="27" height="27" rx="0" fill="#446d58" stroke="none" opacity="1"/><rect x="592" y="223" width="27" height="27" rx="0" fill="#4c7154" stroke="none" opacity="1"/><rect x="621" y="223" width="27" height="27" rx="0" fill="#baa787" stroke="none" opacity="1"/><rect x="650" y="223" width="27" height="27" rx="0" fill="#baa787" stroke="none" opacity="1"/><rect x="679" y="223" width="27" height="27" rx="0" fill="#4c7154" stroke="none" opacity="1"/><rect x="708" y="223" width="27" height="27" rx="0" fill="#a4967f" stroke="none" opacity="1"/><rect x="737" y="223" width="27" height="27" rx="0" fill="#baa787" stroke="none" opacity="1"/><rect x="128" y="252" width="27" height="27" rx="0" fill="#789d7c" stroke="none" opacity="1"/><rect x="157" y="252" width="27" height="27" rx="0" fill="#446d58" stroke="none" opacity="1"/><rect x="186" y="252" width="27" height="27" rx="0" fill="#4c7154" stroke="none" opacity="1"/><rect x="215" y="252" width="27" height="27" rx="0" fill="#a4967f" stroke="none" opacity="1"/><rect x="244" y="252" width="27" height="27" rx="0" fill="#446d58" stroke="none" opacity="1"/><rect x="273" y="252" width="27" height="27" rx="0" fill="#4c7154" stroke="none" opacity="1"/><rect x="302" y="252" width="27" height="27" rx="0" fill="#6799a8" stroke="none" opacity="1"/><rect x="331" y="252" width="27" height="27" rx="0" fill="#6799a8" stroke="none" opacity="1"/><rect x="360" y="252" width="27" height="27" rx="0" fill="#789d7c" stroke="none" opacity="1"/><rect x="389" y="252" width="27" height="27" rx="0" fill="#446d58" stroke="none" opacity="1"/><rect x="418" y="252" width="27" height="27" rx="0" fill="#8e9973" stroke="none" opacity="1"/><rect x="447" y="252" width="27" height="27" rx="0" fill="#baa787" stroke="none" opacity="1"/><rect x="476" y="252" width="27" height="27" rx="0" fill="#446d58" stroke="none" opacity="1"/><rect x="505" y="252" width="27" height="27" rx="0" fill="#4c7154" stroke="none" opacity="1"/><rect x="534" y="252" width="27" height="27" rx="0" fill="#baa787" stroke="none" opacity="1"/><rect x="563" y="252" width="27" height="27" rx="0" fill="#baa787" stroke="none" opacity="1"/><rect x="592" y="252" width="27" height="27" rx="0" fill="#4c7154" stroke="none" opacity="1"/><rect x="621" y="252" width="27" height="27" rx="0" fill="#a4967f" stroke="none" opacity="1"/><rect x="650" y="252" width="27" height="27" rx="0" fill="#baa787" stroke="none" opacity="1"/><rect x="679" y="252" width="27" height="27" rx="0" fill="#789d7c" stroke="none" opacity="1"/><rect x="708" y="252" width="27" height="27" rx="0" fill="#446d58" stroke="none" opacity="1"/><rect x="737" y="252" width="27" height="27" rx="0" fill="#8e9973" stroke="none" opacity="1"/><rect x="128" y="281" width="27" height="27" rx="0" fill="#a4967f" stroke="none" opacity="1"/><rect x="157" y="281" width="27" height="27" rx="0" fill="#446d58" stroke="none" opacity="1"/><rect x="186" y="281" width="27" height="27" rx="0" fill="#4c7154" stroke="none" opacity="1"/><rect x="215" y="281" width="27" height="27" rx="0" fill="#a4967f" stroke="none" opacity="1"/><rect x="244" y="281" width="27" height="27" rx="0" fill="#8e9973" stroke="none" opacity="1"/><rect x="273" y="281" width="27" height="27" rx="0" fill="#6799a8" stroke="none" opacity="1"/><rect x="302" y="281" width="27" height="27" rx="0" fill="#6799a8" stroke="none" opacity="1"/><rect x="331" y="281" width="27" height="27" rx="0" fill="#6799a8" stroke="none" opacity="1"/><rect x="360" y="281" width="27" height="27" rx="0" fill="#789d7c" stroke="none" opacity="1"/><rect x="389" y="281" width="27" height="27" rx="0" fill="#446d58" stroke="none" opacity="1"/><rect x="418" y="281" width="27" height="27" rx="0" fill="#4c7154" stroke="none" opacity="1"/><rect x="447" y="281" width="27" height="27" rx="0" fill="#baa787" stroke="none" opacity="1"/><rect x="476" y="281" width="27" height="27" rx="0" fill="#baa787" stroke="none" opacity="1"/><rect x="505" y="281" width="27" height="27" rx="0" fill="#4c7154" stroke="none" opacity="1"/><rect x="534" y="281" width="27" height="27" rx="0" fill="#a4967f" stroke="none" opacity="1"/><rect x="563" y="281" width="27" height="27" rx="0" fill="#baa787" stroke="none" opacity="1"/><rect x="592" y="281" width="27" height="27" rx="0" fill="#789d7c" stroke="none" opacity="1"/><rect x="621" y="281" width="27" height="27" rx="0" fill="#446d58" stroke="none" opacity="1"/><rect x="650" y="281" width="27" height="27" rx="0" fill="#8e9973" stroke="none" opacity="1"/><rect x="679" y="281" width="27" height="27" rx="0" fill="#baa787" stroke="none" opacity="1"/><rect x="708" y="281" width="27" height="27" rx="0" fill="#446d58" stroke="none" opacity="1"/><rect x="737" y="281" width="27" height="27" rx="0" fill="#4c7154" stroke="none" opacity="1"/><rect x="128" y="310" width="27" height="27" rx="0" fill="#a4967f" stroke="none" opacity="1"/><rect x="157" y="310" width="27" height="27" rx="0" fill="#8e9973" stroke="none" opacity="1"/><rect x="186" y="310" width="27" height="27" rx="0" fill="#789d7c" stroke="none" opacity="1"/><rect x="215" y="310" width="27" height="27" rx="0" fill="#446d58" stroke="none" opacity="1"/><rect x="244" y="310" width="27" height="27" rx="0" fill="#8e9973" stroke="none" opacity="1"/><rect x="273" y="310" width="27" height="27" rx="0" fill="#789d7c" stroke="none" opacity="1"/><rect x="302" y="310" width="27" height="27" rx="0" fill="#6799a8" stroke="none" opacity="1"/><rect x="331" y="310" width="27" height="27" rx="0" fill="#6799a8" stroke="none" opacity="1"/><rect x="360" y="310" width="27" height="27" rx="0" fill="#a4967f" stroke="none" opacity="1"/><rect x="389" y="310" width="27" height="27" rx="0" fill="#baa787" stroke="none" opacity="1"/><rect x="418" y="310" width="27" height="27" rx="0" fill="#4c7154" stroke="none" opacity="1"/><rect x="447" y="310" width="27" height="27" rx="0" fill="#a4967f" stroke="none" opacity="1"/><rect x="476" y="310" width="27" height="27" rx="0" fill="#baa787" stroke="none" opacity="1"/><rect x="505" y="310" width="27" height="27" rx="0" fill="#789d7c" stroke="none" opacity="1"/><rect x="534" y="310" width="27" height="27" rx="0" fill="#446d58" stroke="none" opacity="1"/><rect x="563" y="310" width="27" height="27" rx="0" fill="#8e9973" stroke="none" opacity="1"/><rect x="592" y="310" width="27" height="27" rx="0" fill="#baa787" stroke="none" opacity="1"/><rect x="621" y="310" width="27" height="27" rx="0" fill="#446d58" stroke="none" opacity="1"/><rect x="650" y="310" width="27" height="27" rx="0" fill="#4c7154" stroke="none" opacity="1"/><rect x="679" y="310" width="27" height="27" rx="0" fill="#baa787" stroke="none" opacity="1"/><rect x="708" y="310" width="27" height="27" rx="0" fill="#baa787" stroke="none" opacity="1"/><rect x="737" y="310" width="27" height="27" rx="0" fill="#4c7154" stroke="none" opacity="1"/><rect x="128" y="339" width="27" height="27" rx="0" fill="#446d58" stroke="none" opacity="1"/><rect x="157" y="339" width="27" height="27" rx="0" fill="#8e9973" stroke="none" opacity="1"/><rect x="186" y="339" width="27" height="27" rx="0" fill="#789d7c" stroke="none" opacity="1"/><rect x="215" y="339" width="27" height="27" rx="0" fill="#446d58" stroke="none" opacity="1"/><rect x="244" y="339" width="27" height="27" rx="0" fill="#4c7154" stroke="none" opacity="1"/><rect x="273" y="339" width="27" height="27" rx="0" fill="#a4967f" stroke="none" opacity="1"/><rect x="302" y="339" width="27" height="27" rx="0" fill="#446d58" stroke="none" opacity="1"/><rect x="331" y="339" width="27" height="27" rx="0" fill="#6799a8" stroke="none" opacity="1"/><rect x="360" y="339" width="27" height="27" rx="0" fill="#6799a8" stroke="none" opacity="1"/><rect x="389" y="339" width="27" height="27" rx="0" fill="#6799a8" stroke="none" opacity="1"/><rect x="418" y="339" width="27" height="27" rx="0" fill="#789d7c" stroke="none" opacity="1"/><rect x="447" y="339" width="27" height="27" rx="0" fill="#446d58" stroke="none" opacity="1"/><rect x="476" y="339" width="27" height="27" rx="0" fill="#8e9973" stroke="none" opacity="1"/><rect x="505" y="339" width="27" height="27" rx="0" fill="#baa787" stroke="none" opacity="1"/><rect x="534" y="339" width="27" height="27" rx="0" fill="#446d58" stroke="none" opacity="1"/><rect x="563" y="339" width="27" height="27" rx="0" fill="#4c7154" stroke="none" opacity="1"/><rect x="592" y="339" width="27" height="27" rx="0" fill="#baa787" stroke="none" opacity="1"/><rect x="621" y="339" width="27" height="27" rx="0" fill="#baa787" stroke="none" opacity="1"/><rect x="650" y="339" width="27" height="27" rx="0" fill="#4c7154" stroke="none" opacity="1"/><rect x="679" y="339" width="27" height="27" rx="0" fill="#a4967f" stroke="none" opacity="1"/><rect x="708" y="339" width="27" height="27" rx="0" fill="#baa787" stroke="none" opacity="1"/><rect x="737" y="339" width="27" height="27" rx="0" fill="#789d7c" stroke="none" opacity="1"/><rect x="128" y="368" width="27" height="27" rx="0" fill="#446d58" stroke="none" opacity="1"/><rect x="157" y="368" width="27" height="27" rx="0" fill="#4c7154" stroke="none" opacity="1"/><rect x="186" y="368" width="27" height="27" rx="0" fill="#a4967f" stroke="none" opacity="1"/><rect x="215" y="368" width="27" height="27" rx="0" fill="#446d58" stroke="none" opacity="1"/><rect x="244" y="368" width="27" height="27" rx="0" fill="#4c7154" stroke="none" opacity="1"/><rect x="273" y="368" width="27" height="27" rx="0" fill="#a4967f" stroke="none" opacity="1"/><rect x="302" y="368" width="27" height="27" rx="0" fill="#8e9973" stroke="none" opacity="1"/><rect x="331" y="368" width="27" height="27" rx="0" fill="#789d7c" stroke="none" opacity="1"/><rect x="360" y="368" width="27" height="27" rx="0" fill="#446d58" stroke="none" opacity="1"/><rect x="389" y="368" width="27" height="27" rx="0" fill="#6799a8" stroke="none" opacity="1"/><rect x="418" y="368" width="27" height="27" rx="0" fill="#6799a8" stroke="none" opacity="1"/><rect x="447" y="368" width="27" height="27" rx="0" fill="#446d58" stroke="none" opacity="1"/><rect x="476" y="368" width="27" height="27" rx="0" fill="#4c7154" stroke="none" opacity="1"/><rect x="505" y="368" width="27" height="27" rx="0" fill="#a4967f" stroke="none" opacity="1"/><rect x="534" y="368" width="27" height="27" rx="0" fill="#446d58" stroke="none" opacity="1"/><rect x="563" y="368" width="27" height="27" rx="0" fill="#4c7154" stroke="none" opacity="1"/><rect x="592" y="368" width="27" height="27" rx="0" fill="#a4967f" stroke="none" opacity="1"/><rect x="621" y="368" width="27" height="27" rx="0" fill="#8e9973" stroke="none" opacity="1"/><rect x="650" y="368" width="27" height="27" rx="0" fill="#789d7c" stroke="none" opacity="1"/><rect x="679" y="368" width="27" height="27" rx="0" fill="#446d58" stroke="none" opacity="1"/><rect x="708" y="368" width="27" height="27" rx="0" fill="#8e9973" stroke="none" opacity="1"/><rect x="737" y="368" width="27" height="27" rx="0" fill="#789d7c" stroke="none" opacity="1"/><rect x="128" y="397" width="27" height="27" rx="0" fill="#446d58" stroke="none" opacity="1"/><rect x="157" y="397" width="27" height="27" rx="0" fill="#4c7154" stroke="none" opacity="1"/><rect x="186" y="397" width="27" height="27" rx="0" fill="#a4967f" stroke="none" opacity="1"/><rect x="215" y="397" width="27" height="27" rx="0" fill="#8e9973" stroke="none" opacity="1"/><rect x="244" y="397" width="27" height="27" rx="0" fill="#789d7c" stroke="none" opacity="1"/><rect x="273" y="397" width="27" height="27" rx="0" fill="#446d58" stroke="none" opacity="1"/><rect x="302" y="397" width="27" height="27" rx="0" fill="#8e9973" stroke="none" opacity="1"/><rect x="331" y="397" width="27" height="27" rx="0" fill="#789d7c" stroke="none" opacity="1"/><rect x="360" y="397" width="27" height="27" rx="0" fill="#446d58" stroke="none" opacity="1"/><rect x="389" y="397" width="27" height="27" rx="0" fill="#6799a8" stroke="none" opacity="1"/><rect x="418" y="397" width="27" height="27" rx="0" fill="#6799a8" stroke="none" opacity="1"/><rect x="447" y="397" width="27" height="27" rx="0" fill="#6799a8" stroke="none" opacity="1"/><rect x="476" y="397" width="27" height="27" rx="0" fill="#4c7154" stroke="none" opacity="1"/><rect x="505" y="397" width="27" height="27" rx="0" fill="#a4967f" stroke="none" opacity="1"/><rect x="534" y="397" width="27" height="27" rx="0" fill="#8e9973" stroke="none" opacity="1"/><rect x="563" y="397" width="27" height="27" rx="0" fill="#789d7c" stroke="none" opacity="1"/><rect x="592" y="397" width="27" height="27" rx="0" fill="#446d58" stroke="none" opacity="1"/><rect x="621" y="397" width="27" height="27" rx="0" fill="#8e9973" stroke="none" opacity="1"/><rect x="650" y="397" width="27" height="27" rx="0" fill="#789d7c" stroke="none" opacity="1"/><rect x="679" y="397" width="27" height="27" rx="0" fill="#446d58" stroke="none" opacity="1"/><rect x="708" y="397" width="27" height="27" rx="0" fill="#4c7154" stroke="none" opacity="1"/><rect x="737" y="397" width="27" height="27" rx="0" fill="#a4967f" stroke="none" opacity="1"/><rect x="123" y="73" width="647" height="357" rx="0" fill="none" stroke="#bed0ac" opacity="1"/><path d="M97 75h-13v44M795 75h13v44M97 428h-13v-44M795 428h13v-44" stroke="#d8be9d" stroke-width="2" fill="none" /><rect x="155" y="457" width="10" height="10" rx="0" fill="#6e9875" stroke="none" opacity="1"/><text x="175" y="467" fill="#d8e2d7" font-size="12" font-family="monospace" text-anchor="start">VEGETATION</text><rect x="373" y="457" width="10" height="10" rx="0" fill="#baa787" stroke="none" opacity="1"/><text x="393" y="467" fill="#d8e2d7" font-size="12" font-family="monospace" text-anchor="start">BUILT</text><rect x="535" y="457" width="10" height="10" rx="0" fill="#6799a8" stroke="none" opacity="1"/><text x="555" y="467" fill="#d8e2d7" font-size="12" font-family="monospace" text-anchor="start">WATER</text>
<text x="52" y="507" fill="#a6bbaa" font-size="11" font-family="monospace" text-anchor="start">SENTINEL-2 / 100 M GRID / CONCEPTUAL MAP</text>
</svg>