<svg xmlns="http://www.w3.org/2000/svg" width="900" height="540" viewBox="0 0 900 540" role="img">
<defs><radialGradient id="glow"><stop stop-color="#87b19e" stop-opacity=".17"/><stop offset="1" stop-color="#101b1d" stop-opacity="0"/></radialGradient><pattern id="grid" width="36" height="36" patternUnits="userSpaceOnUse"><path d="M36 0H0V36" fill="none" stroke="#85a092" stroke-opacity=".075"/></pattern><marker id="arrow" markerWidth="7" markerHeight="7" refX="5" refY="3" orient="auto"><path d="M0 0L6 3L0 6" fill="none" stroke="#d99b79" stroke-width="1"/></marker></defs>
<rect width="900" height="540" fill="#142021"/><rect width="900" height="540" fill="url(#grid)"/><ellipse cx="495" cy="230" rx="440" ry="330" fill="url(#glow)"/><rect x="74" y="132" width="352" height="245" rx="4" fill="#1b2a2b" stroke="#779b94" opacity="1"/><text x="101" y="175" fill="#dcb18f" font-size="24" font-family="monospace" text-anchor="start">SELECT</text><text x="214" y="175" fill="#d8e2d7" font-size="21" font-family="monospace" text-anchor="start">name, marks</text><text x="101" y="221" fill="#d8e2d7" font-size="21" font-family="monospace" text-anchor="start">FROM students</text><text x="101" y="266" fill="#d8e2d7" font-size="20" font-family="monospace" text-anchor="start">ORDER BY marks DESC</text><text x="101" y="313" fill="#b7cc9c" font-size="21" font-family="monospace" text-anchor="start">LIMIT 5;</text><path d="M466 237l53 -24 53 24v57q-13 38-53 54q-40-16-53-54Z" stroke="#ddb293" stroke-width="2" fill="#273b36" /><path d="M490 275l18 18 32-37" stroke="#c9d9b3" stroke-width="4" fill="none" /><path d="M587 268L642 268" stroke="#d99b79" stroke-width="2" fill="none" marker-end="url(#arrow)"/><ellipse cx="727" cy="207" rx="61" ry="23" fill="#47615a" stroke="#bbccb4"/><rect x="666" y="207" width="122" height="122" rx="0" fill="#29413c" stroke="#bbccb4" opacity="1"/><ellipse cx="727" cy="329" rx="61" ry="23" fill="#29413c" stroke="#bbccb4"/><ellipse cx="727" cy="207" rx="61" ry="23" fill="#47615a" stroke="#bbccb4"/><text x="727" y="404" fill="#dec29e" font-size="13" font-family="monospace" text-anchor="middle">READ ONLY</text>
<text x="52" y="507" fill="#a6bbaa" font-size="11" font-family="monospace" text-anchor="start">NATURAL LANGUAGE → VALIDATED SQL → SQLITE</text>
</svg>